<svg width="20" height="20" viewBox="0 0 20 20" fill="none" xmlns="http://www.w3.org/2000/svg">
<path d="M18.7322 19.5128L11.4265 12.2071C10.8432 12.7041 10.1724 13.0887 9.41405 13.361C8.65572 13.6332 7.89349 13.7693 7.12738 13.7693C5.25916 13.7693 3.67794 13.1226 2.38372 11.8291C1.08949 10.5349 0.442383 8.95408 0.442383 7.08664C0.442383 5.21919 1.08872 3.63758 2.38138 2.34181C3.67483 1.04525 5.25527 0.396973 7.12272 0.396973C8.99094 0.396973 10.5729 1.04408 11.8687 2.33831C13.1645 3.63253 13.8124 5.21414 13.8124 7.08314C13.8124 7.89358 13.6689 8.67797 13.3819 9.43631C13.0941 10.1946 12.7169 10.8433 12.2502 11.3823L19.5559 18.6868L18.7322 19.5128ZM7.12738 12.6015C8.67516 12.6015 9.98222 12.0687 11.0485 11.0031C12.1141 9.93758 12.6469 8.63053 12.6469 7.08197C12.6469 5.53419 12.1141 4.22753 11.0485 3.16197C9.98299 2.09642 8.67633 1.56364 7.12855 1.56364C5.58077 1.56364 4.27372 2.09642 3.20738 3.16197C2.14183 4.22753 1.60905 5.53419 1.60905 7.08197C1.60905 8.62975 2.14183 9.93642 3.20738 11.002C4.27294 12.0675 5.57961 12.6015 7.12738 12.6015Z" fill="#575757"/>
</svg>
